<?xml version="1.0" encoding="UTF-8"?>
<svg xmlns="http://www.w3.org/2000/svg" version="1.2" baseProfile="tiny-ps" viewBox="0 0 1000 1000">
<title>HGD Sveta Cecilija</title>
<rect width="1000" height="1000" fill="#000000"/>
<g transform="translate(0.000000,1000.000000) scale(1.000000,-1.000000)" fill="#CFA142"><path d="M497 765 c3 0 9 0 12 0 3 0 0 1 -6 1 -7 0 -10 -1 -6 -1z"/> <path d="M455 638 l0 -15 3 1 c2 0 2 1 2 6 l0 6 5 0 5 0 0 -6 c0 -6 0 -6 3 -6 l2 0 0 14 0 14 -2 0 c-3 0 -3 0 -3 -5 l0 -6 -5 0 -5 0 0 6 c0 5 0 5 -2 5 l-3 0 0 -14z"/> <path d="M497 650 c-9 -6 -8 -21 2 -26 8 -3 20 2 20 9 0 2 0 3 0 4 0 0 -3 0 -6 0 -7 0 -7 0 -7 -2 0 -2 1 -2 4 -2 4 0 4 0 3 -2 -3 -5 -13 -4 -16 2 -5 9 4 18 13 13 3 -1 5 -2 6 -1 6 5 -11 9 -19 5z"/> <path d="M535 638 l0 -14 7 0 c11 0 14 3 15 12 1 10 -3 15 -15 16 l-7 0 0 -14z m12 8 c9 -3 6 -18 -4 -18 l-3 0 0 10 c0 10 1 11 7 8z"/> <path d="M365 640 c-19 -6 -26 -11 -34 -23 -3 -6 -10 -18 -10 -19 0 -2 10 2 16 5 10 5 41 38 39 41 0 0 -5 -2 -11 -4z"/> <path d="M635 642 c10 -18 35 -38 50 -39 5 -1 5 -1 0 9 -8 12 -13 18 -20 22 -10 5 -32 11 -30 8z"/> <path d="M694 636 c2 -21 3 -24 8 -33 2 -5 6 -11 7 -14 4 -7 4 -7 7 -3 7 12 0 33 -18 53 l-4 5 0 -8z"/> <path d="M387 637 c0 -2 7 -31 8 -33 1 -1 6 -4 11 -6 2 0 3 -1 3 -2 0 -1 0 -1 1 -1 0 0 18 -17 39 -38 l37 -37 -20 -20 c-23 -23 -21 -22 -30 -12 -5 5 -6 5 -7 3 -1 -1 1 -3 12 -13 20 -20 24 -28 18 -47 -3 -9 -12 -22 -16 -22 0 0 -1 -1 -1 -1 -1 -2 -13 -8 -16 -8 -20 -2 -25 0 -37 11 -4 4 -7 6 -8 5 -2 -1 -1 -1 9 -12 13 -13 20 -16 33 -16 4 0 7 0 8 0 1 0 2 1 3 1 0 1 1 1 3 1 1 0 2 0 2 1 0 1 4 2 6 2 0 0 1 0 1 1 0 1 1 1 1 1 2 0 16 15 19 21 3 5 5 12 7 20 1 4 -4 17 -9 24 -1 2 1 4 17 21 10 10 19 19 20 20 2 2 4 1 23 -19 l20 -20 -3 -5 c-11 -16 -8 -36 9 -54 3 -3 5 -5 6 -5 0 0 2 -1 2 -2 1 -1 2 -2 3 -2 0 0 3 -1 5 -2 1 -1 4 -2 5 -2 1 0 2 0 2 -1 2 -1 18 -2 19 -1 0 1 1 1 2 1 0 0 3 1 5 2 2 1 4 1 5 2 2 0 22 21 22 23 -1 2 -2 1 -9 -5 -7 -7 -12 -10 -16 -11 -6 -1 -16 -1 -18 0 -1 0 -3 0 -4 1 -17 2 -33 23 -33 43 0 13 2 17 19 33 14 13 13 13 12 15 -1 1 -3 -1 -8 -6 l-7 -7 -14 13 c-14 14 -26 27 -27 28 0 1 76 76 79 78 1 1 4 2 5 2 6 2 7 4 11 21 4 14 4 21 1 16 0 -1 -7 -3 -11 -4 -2 0 -2 0 -2 0 0 0 -2 0 -4 -1 -9 -1 -12 -3 -16 -10 -3 -7 -49 -55 -75 -79 l-6 -5 -10 10 c-5 5 -15 15 -21 21 -37 36 -47 46 -50 53 -3 7 -8 10 -16 10 -2 0 -3 1 -3 1 0 1 -2 1 -4 1 -5 1 -9 2 -10 3 -1 1 -1 1 -2 0z m21 -10 l8 -1 4 -8 c4 -6 8 -11 42 -45 40 -40 39 -39 36 -42 -2 -1 -3 -1 -51 48 -43 43 -52 52 -48 51 1 -1 5 -2 9 -3z m200 2 c1 -1 -154 -156 -156 -156 -7 0 -6 1 63 70 62 62 68 68 72 75 l4 7 8 3 c9 2 9 2 9 1z m-117 -104 l-2 -2 -39 38 c-32 33 -40 39 -45 42 -3 2 -6 4 -7 4 -1 2 -5 18 -4 18 0 1 23 -21 50 -48 l49 -50 -2 -2z m121 97 c-2 -12 -3 -14 -11 -18 -6 -4 -14 -11 -64 -62 -54 -54 -59 -58 -62 -58 -2 0 -3 0 -3 1 1 1 139 141 140 141 1 0 1 -2 0 -4z m-71 -128 c18 -17 18 -18 15 -21 -2 -1 -2 -1 -20 16 -18 19 -18 18 -15 20 2 3 2 3 20 -15z m-15 1 c9 -10 10 -11 5 -11 -5 0 -20 15 -18 18 2 3 3 3 13 -7z m-59 -51 c5 -11 -6 -35 -21 -45 -8 -5 -23 -8 -31 -7 -3 1 -2 2 3 3 22 0 47 25 47 46 0 5 1 7 2 3z m75 -6 c2 -22 25 -43 46 -43 8 0 6 -2 -2 -3 -26 -1 -51 26 -47 50 1 6 2 4 3 -4z"/> <path d="M310 630 c-15 -19 -22 -41 -16 -51 3 -5 3 -5 11 11 8 15 9 18 10 35 1 14 1 14 -5 5z"/> <path d="M727 599 c-2 -20 -1 -24 4 -41 5 -19 4 -18 7 -15 9 7 8 31 -4 53 -6 14 -7 14 -7 3z"/> <path d="M279 594 c-13 -23 -17 -50 -8 -60 3 -4 4 -3 7 7 1 5 3 13 5 18 2 9 2 30 0 39 -1 1 -2 -1 -4 -4z"/> <path d="M677 582 c-7 -1 -7 -1 3 -9 15 -11 25 -15 32 -11 6 2 6 2 -2 10 -12 13 -18 14 -33 10z"/> <path d="M312 576 c-5 -3 -18 -17 -18 -19 0 -4 11 -4 20 0 9 5 26 19 23 20 -4 3 -20 2 -25 -1z"/> <path d="M750 548 l-4 -14 -1 -21 c0 -22 0 -22 6 -18 11 6 14 39 5 64 l-2 4 -4 -15z"/> <path d="M252 540 c-7 -29 -1 -58 11 -58 l3 0 -1 22 -1 22 -4 12 c-2 7 -4 13 -4 13 -1 0 -2 -5 -4 -11z"/> <path d="M695 550 c4 -7 20 -25 26 -27 4 -2 12 -3 13 -1 1 5 -14 26 -20 28 -5 2 -20 1 -19 0z"/> <path d="M308 545 c-15 -2 -21 -7 -29 -26 -4 -7 -4 -7 2 -7 5 0 11 3 17 10 7 7 20 25 18 24 0 0 -4 -1 -8 -1z"/> <path d="M709 516 c0 -1 11 -25 13 -29 5 -8 10 -12 14 -12 l4 0 -1 6 c-2 13 -6 23 -9 27 -4 4 -21 11 -21 8z"/> <path d="M296 509 c-16 -7 -21 -15 -24 -40 -2 -8 7 -4 15 7 3 5 16 34 15 34 0 1 -3 0 -6 -1z"/> <path d="M761 494 c-9 -13 -9 -14 -14 -31 -5 -21 -5 -20 -3 -21 9 -2 18 11 23 29 2 8 4 37 3 37 0 0 -5 -6 -9 -14z"/> <path d="M241 484 c0 -31 12 -55 25 -52 3 0 3 1 2 2 0 2 -2 9 -5 18 -4 16 -5 18 -15 33 l-7 11 0 -12z"/> <path d="M715 466 c3 -25 9 -39 16 -39 3 0 3 29 1 35 -3 7 -15 19 -18 19 0 0 0 -7 1 -15z"/> <path d="M289 467 c-10 -11 -11 -14 -11 -30 0 -20 1 -22 7 -15 6 6 9 19 12 44 0 10 1 10 -8 1z"/> <path d="M436 471 c0 0 -11 -12 -24 -26 -28 -28 -26 -24 -17 -33 9 -9 8 -9 34 17 27 27 25 25 22 29 -6 8 -15 16 -15 13z m5 -7 c1 -2 1 -2 -21 -25 l-23 -22 -2 2 -2 2 22 23 c25 24 23 23 26 20z"/> <path d="M562 466 c-11 -12 -12 -10 16 -38 23 -23 23 -22 25 -21 4 1 16 12 16 14 0 1 -49 49 -50 50 -1 0 -4 -2 -7 -5z m30 -23 c22 -22 22 -22 21 -24 -3 -3 -3 -3 -27 20 l-22 23 2 2 c3 3 2 3 26 -21z"/> <path d="M758 440 c-10 -8 -12 -11 -16 -18 -2 -4 -7 -12 -10 -17 -5 -9 -5 -9 -3 -11 10 -7 27 11 36 37 2 6 5 19 5 19 0 0 -6 -4 -12 -10z"/> <path d="M709 442 c-2 -3 -4 -27 -4 -35 0 -11 4 -23 8 -23 3 0 10 28 9 35 -1 8 -12 27 -13 23z"/> <path d="M241 437 c0 -4 6 -22 10 -30 9 -18 21 -27 30 -22 4 1 4 2 0 7 -1 3 -6 10 -9 16 -6 10 -8 12 -15 17 -12 9 -16 12 -16 12z"/> <path d="M298 431 c-9 -15 -11 -24 -5 -41 4 -13 5 -14 8 -11 5 6 6 21 3 43 -2 15 -2 15 -6 9z"/> <path d="M690 398 c-9 -23 -11 -33 -9 -42 2 -8 3 -8 10 2 11 17 13 25 9 41 -4 13 -4 13 -10 -1z"/> <path d="M313 397 c-4 -12 -4 -24 0 -31 4 -8 13 -20 14 -20 4 0 5 15 2 25 -1 5 -13 33 -14 33 0 0 -1 -3 -2 -7z"/> <path d="M741 388 l-14 -6 -13 -13 c-15 -13 -15 -14 -9 -17 13 -7 33 8 47 34 2 5 4 8 4 8 0 0 -7 -3 -15 -6z"/> <path d="M256 381 c0 -2 10 -17 17 -24 11 -12 22 -17 31 -14 3 2 8 6 7 7 -2 2 -20 17 -23 20 -3 2 -8 4 -17 7 -7 2 -13 5 -14 5 0 0 -1 0 -1 -1z"/> <path d="M665 370 c-16 -22 -21 -36 -16 -46 1 -2 1 -2 6 3 17 19 19 22 20 39 0 18 1 18 -10 4z"/> <path d="M337 376 c-2 -7 0 -26 3 -32 3 -6 21 -24 22 -22 1 1 1 5 1 10 0 10 -2 17 -12 30 -12 15 -14 17 -14 14z"/> <path d="M398 368 c-3 -3 -3 -3 2 -9 3 -2 4 -5 4 -5 -1 -2 -4 -3 -4 -1 -1 2 -4 1 -4 0 0 -4 8 -5 10 -2 2 3 2 6 -3 10 -4 3 -4 7 0 5 3 -2 5 0 2 2 -3 3 -5 2 -7 0z"/> <path d="M462 369 c-10 -5 -7 -20 3 -20 6 0 11 3 9 5 -1 1 -2 1 -3 -1 -3 -2 -7 -1 -10 1 -5 6 1 15 9 12 4 -2 6 -1 3 1 -4 3 -7 3 -11 2z"/> <path d="M511 369 c-12 -5 -7 -21 5 -20 5 1 7 3 6 5 -1 1 -2 1 -4 -1 -6 -3 -13 3 -10 9 2 4 6 5 10 3 2 0 4 -1 4 0 4 2 -6 6 -11 4z"/> <path d="M420 359 c4 -11 3 -10 5 -10 1 1 8 17 8 19 0 3 -3 0 -5 -5 -3 -9 -3 -9 -6 -1 -2 5 -3 7 -4 7 -2 0 -1 -1 2 -10z"/> <path d="M485 359 l0 -10 5 0 c4 0 5 0 5 2 0 2 -1 2 -4 2 -3 0 -3 0 -3 3 0 2 1 2 4 2 2 0 3 1 3 2 0 2 -1 2 -3 2 -3 0 -4 0 -4 2 0 2 1 2 4 2 2 0 3 0 3 2 0 1 -1 1 -5 1 l-5 0 0 -10z"/> <path d="M533 359 c0 -8 0 -10 2 -10 1 0 1 2 1 10 0 8 0 10 -1 10 -2 0 -2 -2 -2 -10z"/> <path d="M547 359 l0 -10 4 0 c5 1 7 3 2 3 -2 0 -3 1 -3 9 0 6 0 8 -2 8 -1 0 -1 -2 -1 -10z"/> <path d="M565 359 c0 -8 0 -10 2 -10 1 0 1 2 1 10 0 8 0 10 -1 10 -2 0 -2 -2 -2 -10z"/> <path d="M584 361 c0 -8 -1 -10 -3 -8 -2 2 -4 -1 -3 -3 2 -2 7 -1 8 1 2 3 1 18 0 18 -2 0 -2 -2 -2 -8z"/> <path d="M603 366 c-4 -10 -6 -15 -6 -16 0 -2 3 -1 4 2 1 2 2 2 5 2 3 0 4 0 5 -2 1 -2 2 -3 3 -3 0 0 1 1 1 1 -8 21 -10 23 -12 16z m5 -5 c1 -4 1 -4 -2 -4 -3 0 -3 0 -2 4 2 4 2 4 4 0z"/> <path d="M366 352 c3 -23 5 -28 21 -42 12 -11 12 -11 13 -6 5 13 -9 35 -32 52 l-3 2 1 -6z"/> <path d="M634 347 c-17 -17 -23 -27 -23 -39 0 -13 1 -13 13 0 16 16 18 20 21 42 1 10 1 10 -11 -3z"/> <path d="M443 351 c0 -1 1 -2 2 -2 1 0 1 1 1 2 -1 2 -3 3 -3 0z"/> <path d="M701 343 c-5 -1 -32 -15 -34 -17 0 -1 1 -2 1 -4 9 -12 31 -6 52 14 l9 8 -11 0 c-7 0 -14 -1 -17 -1z"/> <path d="M505 340 c2 -1 5 -1 5 0 1 0 -1 1 -3 1 -2 0 -3 0 -2 -1z"/> <path d="M293 336 c-10 0 -10 -1 -3 -7 20 -19 44 -23 53 -10 3 4 3 4 -14 11 -16 8 -14 7 -36 6z"/> <path d="M445 330 c0 -9 3 -12 3 -4 l1 3 2 -3 c1 -2 3 -4 4 -4 2 0 2 1 -1 4 -3 4 -3 5 0 9 3 3 0 3 -3 -1 l-3 -2 0 2 c0 2 -1 3 -1 3 -2 0 -2 -1 -2 -7z"/> <path d="M464 336 c-3 -3 -3 -6 -2 -10 4 -7 16 -4 16 3 0 7 -8 10 -14 7z m10 -3 c5 -5 -3 -12 -8 -7 -2 2 -3 5 0 7 2 3 6 2 8 0z"/> <path d="M485 330 c0 -5 0 -8 1 -8 1 0 1 1 1 3 0 3 2 4 2 1 1 -2 4 -5 5 -4 0 1 -1 2 -1 4 -2 2 -2 2 -1 4 4 4 1 7 -4 7 -3 0 -3 0 -3 -7z m6 3 c0 -1 0 -2 -2 -2 -1 0 -2 1 -2 2 0 3 3 2 4 0z"/> <path d="M501 335 c-5 -6 -1 -13 7 -13 2 0 4 1 5 2 2 2 1 2 -2 1 -4 -2 -9 0 -9 5 0 4 7 7 10 4 0 -1 1 -1 2 0 2 1 -2 3 -6 3 -3 0 -5 -1 -7 -2z"/> <path d="M520 330 c0 -4 1 -6 2 -7 2 -1 6 -1 8 0 1 2 1 14 0 14 -1 0 -1 -2 -1 -5 0 -5 -2 -9 -4 -8 -2 1 -2 2 -2 7 0 5 0 6 -2 6 -1 0 -1 -1 -1 -7z"/> <path d="M538 330 l0 -8 4 0 c3 0 4 2 1 2 -2 0 -3 1 -3 7 0 9 -2 8 -2 -1z"/> <path d="M552 330 c-2 -6 -2 -8 -2 -8 1 0 2 1 2 2 1 2 8 1 10 -1 2 -3 2 0 -1 7 -4 9 -5 9 -9 0z m6 1 c1 -4 1 -4 -1 -4 -3 0 -3 1 -2 4 2 3 3 3 3 0z"/> <path d="M572 312 c-1 -3 -8 -4 -25 -4 -9 0 -17 0 -17 0 0 0 -1 -7 -3 -16 l-3 -15 3 0 c24 7 39 -8 32 -31 -5 -14 -18 -15 -22 -1 -4 14 -12 18 -16 10 -10 -19 34 -30 51 -13 21 21 -4 46 -39 39 -7 -1 -6 -1 -6 4 l1 5 23 0 23 0 0 12 c0 10 -1 13 -2 10z"/> <path d="M652 310 c-22 -8 -23 -9 -18 -14 9 -11 30 -8 54 7 l5 4 -12 3 c-14 4 -19 4 -29 0z"/> <path d="M335 307 c-18 -6 -17 -5 -12 -8 24 -14 48 -15 56 -1 2 4 3 4 -7 7 -22 7 -23 7 -37 2z"/> <path d="M451 308 c-16 -4 -23 -14 -16 -22 5 -5 11 -1 14 9 5 17 18 18 20 2 2 -11 -3 -21 -11 -23 l-4 -1 5 -2 c12 -4 16 -14 12 -27 -4 -14 -17 -12 -22 4 -4 10 -10 14 -15 9 -14 -16 23 -31 46 -20 16 8 16 28 -1 35 l-5 2 5 3 c24 13 1 40 -28 31z"/></g>
<g transform="translate(0.000000,1000.000000) scale(1.000000,-1.000000)" fill="#F5EFF0"><path d="M472 742 c-45 -4 -89 -14 -115 -26 l-6 -2 5 -8 c3 -4 6 -8 7 -9 0 -2 1 -2 9 1 71 28 179 29 257 2 7 -2 13 -4 14 -4 1 0 12 16 12 18 0 2 -30 12 -49 17 -37 9 -97 14 -134 11z"/> <path d="M347 692 c-8 -1 -16 -4 -18 -5 -1 -1 -2 -15 -1 -15 0 0 1 1 3 2 5 2 16 4 28 4 l11 0 0 3 c-1 2 -2 5 -3 8 l-2 4 -6 0 c-4 0 -9 -1 -12 -1z"/> <path d="M641 691 c0 -1 -2 -4 -3 -7 l-2 -5 11 0 c16 -1 24 -3 29 -5 4 -2 5 -2 4 -1 0 1 0 4 -1 7 0 3 -1 6 -1 7 -4 4 -35 8 -37 4z"/></g>
<g transform="translate(0.000000,1000.000000) scale(1.000000,-1.000000)" fill="#F02623"><path d="M468 763 c-49 -4 -96 -15 -127 -31 -8 -4 -8 -3 -3 -6 2 -2 6 -5 9 -7 l4 -4 11 4 c82 33 202 33 283 0 l11 -4 4 3 c2 2 6 5 8 7 6 4 6 3 -2 7 -48 25 -128 37 -198 31z"/> <path d="M344 705 c-16 -3 -22 -6 -19 -10 1 -1 2 -4 2 -5 1 -3 1 -3 4 -1 6 2 9 3 21 4 l12 1 -4 6 c-4 6 -4 7 -16 5z"/> <path d="M647 700 l-4 -6 9 0 c11 -1 19 -3 23 -5 l4 -2 0 3 c1 1 2 4 3 5 l2 3 -4 2 c-5 2 -14 5 -23 6 l-6 0 -4 -6z"/></g>
<g transform="translate(0.000000,1000.000000) scale(1.000000,-1.000000)" fill="#1A2A76"><path d="M470 718 c-31 -3 -55 -7 -77 -14 -14 -3 -28 -9 -28 -10 2 -4 5 -11 6 -13 l0 -3 -12 0 c-13 -1 -25 -3 -29 -5 -3 -2 -8 -15 -6 -17 0 0 0 -1 0 -2 0 -7 19 -4 22 3 2 3 2 5 -1 5 -2 0 -2 0 -1 1 0 1 9 1 20 2 24 1 31 3 37 9 3 3 4 7 2 5 -1 0 -1 0 -1 1 2 5 -5 5 -21 -2 -9 -3 -13 -4 -6 0 15 8 52 17 85 21 14 2 73 2 87 0 20 -2 50 -8 57 -11 1 0 7 -2 13 -4 13 -5 19 -7 19 -9 0 -1 0 -1 -6 1 -15 8 -23 9 -26 5 -6 -8 13 -16 38 -16 13 0 28 -2 31 -4 l3 -1 -4 0 c-9 2 -13 2 -13 1 0 -2 3 -7 3 -6 1 0 1 0 1 -1 0 -1 4 -3 9 -4 5 0 11 1 11 2 -1 0 -1 1 0 1 2 2 1 3 -3 5 -2 1 -4 2 -3 2 0 1 2 0 4 -1 4 -2 3 -2 1 5 -2 7 -3 8 -10 11 -5 1 -23 3 -33 3 -2 0 -3 0 -3 2 0 2 4 11 6 13 3 4 -39 16 -69 21 -32 4 -77 6 -103 4z m-130 -56 c0 -1 -7 -2 -8 -2 0 1 0 1 1 1 1 1 2 1 3 1 2 1 4 1 4 0z m-10 -3 c-1 -1 -2 -2 -4 -2 -2 0 -2 0 -1 2 3 1 7 2 5 0z"/></g>
</svg>
